<svg width="19" height="19" viewBox="0 0 19 19" fill="none" xmlns="http://www.w3.org/2000/svg">
<path d="M8.49998 15.5C10.4333 15.5 12.0833 14.8192 13.45 13.4577C14.8166 12.0961 15.5 10.4436 15.5 8.49998C15.5 6.56664 14.8166 4.91664 13.45 3.54998C12.0833 2.18331 10.4333 1.49998 8.49998 1.49998C6.55639 1.49998 4.90383 2.18331 3.54228 3.54998C2.18074 4.91664 1.49998 6.56664 1.49998 8.49998C1.49998 10.4436 2.18074 12.0961 3.54228 13.4577C4.90383 14.8192 6.55639 15.5 8.49998 15.5ZM8.49998 17C7.32049 17 6.21537 16.7769 5.1846 16.3307C4.15383 15.8846 3.25512 15.2782 2.48845 14.5115C1.7218 13.7448 1.1154 12.8461 0.66925 11.8154C0.223083 10.7846 0 9.67946 0 8.49998C0 7.33074 0.223083 6.23075 0.66925 5.2C1.1154 4.16923 1.7218 3.26795 2.48845 2.49615C3.25512 1.72437 4.15383 1.1154 5.1846 0.669251C6.21537 0.223084 7.32049 0 8.49998 0C9.66921 0 10.7692 0.223084 11.8 0.669251C12.8307 1.1154 13.732 1.72437 14.5038 2.49615C15.2756 3.26795 15.8846 4.16923 16.3307 5.2C16.7769 6.23075 17 7.33074 17 8.49998C17 9.54099 16.8233 10.5237 16.4701 11.4481C16.1169 12.3724 15.6288 13.2102 15.0057 13.9615L19 17.9557L17.9404 19L13.9461 15.0211C13.1948 15.6442 12.357 16.1297 11.4327 16.4778C10.5083 16.8259 9.53074 17 8.49998 17Z" fill="white"/>
</svg>
